<svg xmlns="http://www.w3.org/2000/svg" width="48" height="48" viewBox="0 0 48 48" fill="none">
  <!-- Background circle -->
  <rect width="48" height="48" rx="12" fill="url(#grad)"/>
  <!-- Document icon -->
  <path d="M16 10h10l8 8v20a2 2 0 01-2 2H16a2 2 0 01-2-2V12a2 2 0 012-2z" fill="white" fill-opacity="0.95"/>
  <path d="M26 10v6a2 2 0 002 2h6" fill="none" stroke="white" stroke-opacity="0.6" stroke-width="1.5"/>
  <!-- Lines -->
  <rect x="18" y="22" width="12" height="1.5" rx="0.75" fill="#3b82f6" fill-opacity="0.6"/>
  <rect x="18" y="26" width="10" height="1.5" rx="0.75" fill="#3b82f6" fill-opacity="0.4"/>
  <rect x="18" y="30" width="8" height="1.5" rx="0.75" fill="#3b82f6" fill-opacity="0.3"/>
  <!-- AI sparkle -->
  <circle cx="36" cy="36" r="7" fill="#6366f1"/>
  <path d="M36 32v8M32 36h8M33.17 33.17l5.66 5.66M38.83 33.17l-5.66 5.66" stroke="white" stroke-width="1.2" stroke-linecap="round"/>
  <defs>
    <linearGradient id="grad" x1="0" y1="0" x2="48" y2="48">
      <stop stop-color="#3b82f6"/>
      <stop offset="1" stop-color="#6366f1"/>
    </linearGradient>
  </defs>
</svg>
