<svg xmlns="http://www.w3.org/2000/svg" width="48" height="48" viewBox="0 0 48 48" role="img" aria-label="이력서공방">
  <defs>
    <linearGradient id="paper" x1="8" y1="6" x2="42" y2="44" gradientUnits="userSpaceOnUse">
      <stop stop-color="#f8fafc" />
      <stop offset="1" stop-color="#e2e8f0" />
    </linearGradient>
  </defs>
  <rect x="3" y="3" width="42" height="42" rx="12" fill="#0f172a" />
  <path d="M15 8.5h13l7 7V38a2.5 2.5 0 0 1-2.5 2.5h-17A2.5 2.5 0 0 1 13 38V11a2.5 2.5 0 0 1 2.5-2.5Z" fill="url(#paper)" />
  <path d="M28 8.5v6a2 2 0 0 0 2 2h5" fill="none" stroke="#94a3b8" stroke-width="1.6" />
  <path d="M18 22h12M18 26h10M18 30h7" stroke="#475569" stroke-width="1.8" stroke-linecap="round" />
  <circle cx="34" cy="34" r="7" fill="#2563eb" />
  <path d="M30.8 34.1 33.2 36.5 38 31.2" fill="none" stroke="#eff6ff" stroke-width="2" stroke-linecap="round" stroke-linejoin="round" />
</svg>
