<svg xmlns="http://www.w3.org/2000/svg" width="512" height="512" viewBox="0 0 512 512" role="img" aria-label="이력서공방">
  <defs>
    <linearGradient id="bg" x1="70" y1="40" x2="442" y2="476" gradientUnits="userSpaceOnUse">
      <stop stop-color="#2563eb"/>
      <stop offset=".56" stop-color="#0f172a"/>
      <stop offset="1" stop-color="#2563eb"/>
    </linearGradient>
    <radialGradient id="glow" cx="72%" cy="23%" r="68%">
      <stop stop-color="#06b6d4" stop-opacity=".72"/>
      <stop offset=".58" stop-color="#10b981" stop-opacity=".24"/>
      <stop offset="1" stop-color="#0f172a" stop-opacity="0"/>
    </radialGradient>
    <filter id="shadow" x="-20%" y="-20%" width="140%" height="140%">
      <feDropShadow dx="0" dy="18" stdDeviation="22" flood-color="#0f172a" flood-opacity=".34"/>
    </filter>
  </defs>
  <rect width="512" height="512" rx="116" fill="url(#bg)"/>
  <rect width="512" height="512" rx="116" fill="url(#glow)"/>
  <path d="M46 342C154 278 238 414 466 292" fill="none" stroke="#f8fafc" stroke-opacity=".1" stroke-width="26" stroke-linecap="round"/>
  <g filter="url(#shadow)">
        <g transform="translate(0 0) scale(1)">
          <path d="M158 92h132l76 76v244a28 28 0 0 1-28 28H158a28 28 0 0 1-28-28V120a28 28 0 0 1 28-28z" fill="#f8fafc"/>
          <path d="M290 92v58a24 24 0 0 0 24 24h52" fill="none" stroke="#06b6d4" stroke-width="20" stroke-linecap="round"/>
          <path d="M178 226h150M178 274h116M178 322h90" stroke="#0f172a" stroke-width="22" stroke-linecap="round"/>
          <circle cx="356" cy="356" r="54" fill="#10b981"/>
          <path d="M332 357l18 18 37-44" fill="none" stroke="#f8fafc" stroke-width="16" stroke-linecap="round" stroke-linejoin="round"/>
        </g></g>
</svg>
