<svg xmlns="http://www.w3.org/2000/svg" width="1200" height="630" viewBox="0 0 1200 630">
  <defs>
    <linearGradient id="bg" x1="0%" y1="0%" x2="100%" y2="100%">
      <stop offset="0%" style="stop-color:#4f46e5"/>
      <stop offset="100%" style="stop-color:#7c3aed"/>
    </linearGradient>
  </defs>
  <rect width="1200" height="630" fill="url(#bg)"/>
  <rect x="60" y="60" width="500" height="510" rx="24" fill="white" opacity="0.12"/>
  <rect x="80" y="80" width="460" height="12" rx="6" fill="white" opacity="0.3"/>
  <rect x="80" y="110" width="320" height="8" rx="4" fill="white" opacity="0.2"/>
  <rect x="80" y="150" width="460" height="6" rx="3" fill="white" opacity="0.15"/>
  <rect x="80" y="170" width="400" height="6" rx="3" fill="white" opacity="0.15"/>
  <rect x="80" y="190" width="440" height="6" rx="3" fill="white" opacity="0.15"/>
  <rect x="80" y="230" width="200" height="10" rx="5" fill="white" opacity="0.25"/>
  <rect x="80" y="260" width="460" height="6" rx="3" fill="white" opacity="0.15"/>
  <rect x="80" y="280" width="380" height="6" rx="3" fill="white" opacity="0.15"/>
  <rect x="80" y="320" width="180" height="10" rx="5" fill="white" opacity="0.25"/>
  <rect x="80" y="350" width="100" height="20" rx="10" fill="white" opacity="0.2"/>
  <rect x="190" y="350" width="80" height="20" rx="10" fill="white" opacity="0.2"/>
  <rect x="280" y="350" width="120" height="20" rx="10" fill="white" opacity="0.2"/>
  <text x="680" y="240" font-family="system-ui, -apple-system, sans-serif" font-size="64" font-weight="800" fill="white">이력서공방</text>
  <text x="680" y="310" font-family="system-ui, -apple-system, sans-serif" font-size="28" fill="white" opacity="0.85">AI 기반 이력서 관리 플랫폼</text>
  <text x="680" y="370" font-family="system-ui, -apple-system, sans-serif" font-size="20" fill="white" opacity="0.6">5종 AI 분석 · 26개 템플릿 · 무료 시작</text>
  <text x="680" y="480" font-family="system-ui, -apple-system, sans-serif" font-size="18" fill="white" opacity="0.4">resume-gongbang.vercel.app</text>
</svg>
