<svg xmlns="http://www.w3.org/2000/svg" width="1200" height="630" viewBox="0 0 1200 630" role="img" aria-label="이력서공방">
  <defs>
    <linearGradient id="bg" x1="0" y1="0" x2="1200" y2="630" gradientUnits="userSpaceOnUse">
      <stop stop-color="#f8fafc" />
      <stop offset="0.62" stop-color="#eff6ff" />
      <stop offset="1" stop-color="#ecfeff" />
    </linearGradient>
    <linearGradient id="signal" x1="744" y1="124" x2="1080" y2="492" gradientUnits="userSpaceOnUse">
      <stop stop-color="#2563eb" />
      <stop offset="1" stop-color="#0891b2" />
    </linearGradient>
    <filter id="soft" x="-20%" y="-20%" width="140%" height="140%">
      <feDropShadow dx="0" dy="18" stdDeviation="28" flood-color="#0f172a" flood-opacity="0.12" />
    </filter>
  </defs>
  <rect width="1200" height="630" fill="url(#bg)" />
  <path d="M0 510C170 464 322 492 458 532c176 52 336 36 480-46 78-44 152-69 222-70v214H0Z" fill="#dbeafe" opacity="0.5" />
  <g transform="translate(88 92)">
    <rect width="54" height="54" rx="15" fill="#0f172a" />
    <path d="M20 12h14l7 7v26a2 2 0 0 1-2 2H20a2 2 0 0 1-2-2V14a2 2 0 0 1 2-2Z" fill="#f8fafc" />
    <path d="M34 12v6a2 2 0 0 0 2 2h5" fill="none" stroke="#94a3b8" stroke-width="1.6" />
    <path d="M23 27h14M23 32h10M23 37h7" stroke="#2563eb" stroke-width="1.8" stroke-linecap="round" />
  </g>
  <text x="166" y="126" font-family="system-ui, -apple-system, BlinkMacSystemFont, 'Segoe UI', sans-serif" font-size="34" font-weight="800" fill="#0f172a">이력서공방</text>
  <text x="88" y="238" font-family="system-ui, -apple-system, BlinkMacSystemFont, 'Segoe UI', sans-serif" font-size="70" font-weight="850" fill="#0f172a">서류 합격률을,</text>
  <text x="88" y="318" font-family="system-ui, -apple-system, BlinkMacSystemFont, 'Segoe UI', sans-serif" font-size="70" font-weight="850" fill="#2563eb">데이터로 올립니다.</text>
  <text x="92" y="392" font-family="system-ui, -apple-system, BlinkMacSystemFont, 'Segoe UI', sans-serif" font-size="25" font-weight="500" fill="#334155">AI 분석, 직무 템플릿, 실시간 미리보기까지.</text>
  <text x="92" y="430" font-family="system-ui, -apple-system, BlinkMacSystemFont, 'Segoe UI', sans-serif" font-size="25" font-weight="500" fill="#475569">한국어 이력서 워크플로를 한 화면에 정리합니다.</text>
  <g transform="translate(92 500)">
    <rect width="172" height="42" rx="21" fill="#0f172a" />
    <text x="86" y="28" text-anchor="middle" font-family="system-ui, -apple-system, BlinkMacSystemFont, 'Segoe UI', sans-serif" font-size="15" font-weight="700" fill="#f8fafc">무료로 시작하기</text>
    <rect x="188" width="154" height="42" rx="21" fill="#eff6ff" stroke="#bfdbfe" />
    <text x="265" y="28" text-anchor="middle" font-family="system-ui, -apple-system, BlinkMacSystemFont, 'Segoe UI', sans-serif" font-size="15" font-weight="700" fill="#0c4a6e">템플릿 탐색</text>
  </g>
  <g transform="translate(702 92)" filter="url(#soft)">
    <rect width="386" height="444" rx="30" fill="#f8fafc" stroke="#cbd5e1" />
    <rect x="36" y="34" width="220" height="18" rx="9" fill="#0f172a" opacity="0.88" />
    <rect x="36" y="70" width="306" height="10" rx="5" fill="#cbd5e1" />
    <rect x="36" y="94" width="276" height="10" rx="5" fill="#e2e8f0" />
    <rect x="36" y="132" width="136" height="14" rx="7" fill="#2563eb" opacity="0.78" />
    <rect x="36" y="166" width="306" height="72" rx="18" fill="#ffffff" stroke="#e2e8f0" />
    <path d="M64 214h74l24-34 28 44 30-30 42 42" fill="none" stroke="url(#signal)" stroke-width="8" stroke-linecap="round" stroke-linejoin="round" />
    <g transform="translate(36 262)">
      <rect width="93" height="74" rx="18" fill="#ffffff" stroke="#dbeafe" />
      <circle cx="28" cy="28" r="9" fill="#2563eb" />
      <rect x="44" y="22" width="30" height="9" rx="4.5" fill="#94a3b8" />
      <rect x="22" y="48" width="52" height="8" rx="4" fill="#bfdbfe" />
    </g>
    <g transform="translate(143 262)">
      <rect width="93" height="74" rx="18" fill="#ffffff" stroke="#dbeafe" />
      <circle cx="28" cy="28" r="9" fill="#06b6d4" />
      <rect x="44" y="22" width="30" height="9" rx="4.5" fill="#94a3b8" />
      <rect x="22" y="48" width="52" height="8" rx="4" fill="#bae6fd" />
    </g>
    <g transform="translate(250 262)">
      <rect width="93" height="74" rx="18" fill="#ffffff" stroke="#dbeafe" />
      <circle cx="28" cy="28" r="9" fill="#059669" />
      <rect x="44" y="22" width="30" height="9" rx="4.5" fill="#94a3b8" />
      <rect x="22" y="48" width="52" height="8" rx="4" fill="#bbf7d0" />
    </g>
    <rect x="36" y="366" width="306" height="36" rx="18" fill="#0f172a" />
    <text x="188" y="390" text-anchor="middle" font-family="system-ui, -apple-system, BlinkMacSystemFont, 'Segoe UI', sans-serif" font-size="14" font-weight="750" fill="#f8fafc">JD 맞춤 분석 완료</text>
  </g>
</svg>
